<svg version="1.1" xmlns="http://www.w3.org/2000/svg" xmlns:xlink="http://www.w3.org/1999/xlink" style="display: none;">
<defs>
<g id="icon-image">
 	<path d="M302.553,0H10C4.477,0,0,4.478,0,10v292.553c0,5.522,4.477,10,10,10h292.553c5.523,0,10-4.478,10-10V10
		C312.553,4.478,308.076,0,302.553,0z M148.087,193.287c-9.481,8.296-21.592,12.866-34.102,12.866
		c-28.109,0-50.977-22.4-50.977-49.934c0-27.471,22.868-49.819,50.977-49.819c12.527,0,24.597,4.53,33.987,12.756
		c3.873,3.393,4.262,9.283,0.868,13.156c-3.392,3.874-9.283,4.265-13.156,0.869c-5.987-5.245-13.694-8.135-21.699-8.135
		c-17.827,0-32.33,13.984-32.33,31.173c0,17.251,14.503,31.286,32.33,31.286c7.991,0,15.741-2.931,21.822-8.252
		c3.875-3.391,9.765-2.998,13.157,0.877C152.355,184.006,151.962,189.896,148.087,193.287z M240.22,162.286
		c5.15,0,9.324,4.174,9.324,9.323s-4.174,9.323-9.324,9.323h-10.869l-3.378,14.904c-0.981,4.328-4.826,7.265-9.085,7.265
		c-0.683,0-1.376-0.075-2.069-0.232c-5.022-1.139-8.17-6.132-7.032-11.153l2.444-10.783h-20.201l-3.378,14.904
		c-0.981,4.328-4.826,7.265-9.084,7.265c-0.683,0-1.376-0.075-2.069-0.232c-5.022-1.139-8.17-6.132-7.032-11.153l2.448-10.799
		c-5.007-0.162-9.019-4.262-9.019-9.308c0-5.149,4.174-9.323,9.324-9.323h3.917l2.725-12.02h-6.642
		c-5.149,0-9.324-4.174-9.324-9.322c0-5.15,4.174-9.324,9.324-9.324h10.869l3.378-14.904c1.138-5.021,6.134-8.17,11.154-7.032
		c5.022,1.139,8.17,6.132,7.032,11.153l-2.444,10.783h20.201l3.378-14.904c1.138-5.021,6.133-8.17,11.154-7.032
		c5.022,1.139,8.17,6.132,7.032,11.153l-2.448,10.799c5.007,0.162,9.019,4.262,9.019,9.309c0,5.148-4.174,9.322-9.324,9.322h-3.917
		l-2.725,12.02H240.22z"/>
	<polygon points="194.258,162.286 214.458,162.286 217.183,150.267 196.982,150.267 	"/>
</g>
<g id="icon-SQL">
<path class="st0" d="M95.7,65.5c15.01,0,27.18,12.17,27.18,27.18c0,15.01-12.17,27.18-27.18,27.18 c-15.01,0-27.18-12.17-27.18-27.18C68.52,77.67,80.69,65.5,95.7,65.5L95.7,65.5z M82.76,97.32c-0.74-0.71-1.11-1.65-1.13-2.59 c-0.02-0.95,0.32-1.9,1.03-2.64c0.71-0.73,1.64-1.11,2.59-1.13c0.95-0.02,1.9,0.32,2.64,1.03l4.77,4.53l11.06-14.48l0,0 c0.03-0.05,0.08-0.08,0.12-0.12c3.6-3.11,8.42,2.29,4.92,5.51l-13.59,16.89l0,0c-0.03,0.03-0.06,0.07-0.09,0.09 c-0.71,0.62-1.61,0.93-2.5,0.91c-0.9-0.02-1.8-0.36-2.5-1.03L82.76,97.32L82.76,97.32z M17.69,26.67 c8.1,2.71,19.38,4.38,31.91,4.38s23.81-1.67,31.91-4.38c7.11-2.37,11.51-5.25,11.51-8.06c0-2.81-4.4-5.69-11.51-8.06 c-8.1-2.7-19.38-4.38-31.91-4.38s-23.81,1.67-31.91,4.38C2.6,15.59,2.18,21.5,17.69,26.67L17.69,26.67z M6.24,47.86 c0.56,2.62,4.83,5.26,11.45,7.47c8.1,2.71,19.38,4.38,31.91,4.38s23.81-1.67,31.91-4.38c7.11-2.37,11.51-5.25,11.51-8.06h0.03 v-19.3c-2.53,1.73-5.78,3.26-9.59,4.53c-8.73,2.91-20.71,4.72-33.86,4.72c-13.16,0-25.13-1.8-33.86-4.72 c-3.77-1.26-6.98-2.76-9.49-4.47V47.86L6.24,47.86z M63.3,92.54c-4.35,0.44-8.95,0.67-13.7,0.67c-13.16,0-25.13-1.8-33.86-4.72 c-3.77-1.26-6.98-2.76-9.49-4.47v18.49c0.56,2.62,4.83,5.26,11.45,7.47c8.1,2.7,19.38,4.38,31.91,4.38c7.52,0,14.58-0.6,20.78-1.67 c1.56,1.94,3.33,3.7,5.29,5.24c-7.53,1.65-16.49,2.6-26.07,2.6c-13.16,0-25.13-1.8-33.86-4.72c-4.6-1.54-15.67-6.58-15.67-12.62 c0-0.71,0-1.3,0-1.98C0.06,73.69,0,46.15,0,18.61c0-5.76,6.01-10.65,15.73-13.9C24.46,1.8,36.44,0,49.6,0 c13.16,0,25.13,1.8,33.86,4.72c8.85,2.95,14.62,7.27,15.59,12.37c0.12,0.32,0.18,0.67,0.18,1.04v42.37 c-1.2-0.14-2.42-0.21-3.66-0.21c-0.85,0-1.68,0.03-2.51,0.1v-3.74c-2.53,1.73-5.78,3.26-9.59,4.53 c-8.73,2.91-20.71,4.72-33.86,4.72c-13.16,0-25.13-1.8-33.86-4.72c-3.77-1.26-6.98-2.76-9.49-4.47v18.49 c0.56,2.62,4.83,5.26,11.45,7.47c8.1,2.7,19.38,4.38,31.91,4.38c5.01,0,9.82-0.27,14.31-0.76C63.51,88.3,63.3,90.4,63.3,92.54 L63.3,92.54z"/></g>

</defs>
</svg>
